<svg width="143" height="48" viewBox="0 0 143 48" fill="none" xmlns="http://www.w3.org/2000/svg">
<rect x="0.597412" y="0.973633" width="142.323" height="46.5543" rx="23.2771" fill="#080809"/>
<g clip-path="url(#clip0_0_301)">
<path d="M38.5156 23.5871L25.1564 36.451C24.5308 36.0234 24.1594 35.3123 24.166 34.5546V12.6195C24.1594 11.8618 24.5308 11.1507 25.1564 10.7231L38.5156 23.5871Z" fill="#2196F3"/>
<path d="M43.19 19.0949L38.5155 23.5882L25.1564 10.7243C25.2067 10.6853 25.2591 10.649 25.3134 10.6156C26.0194 10.1877 26.9013 10.1739 27.6204 10.5794L43.19 19.0949Z" fill="#4CAF50"/>
<path d="M48.8552 23.5895C48.8639 24.4449 48.3991 25.2349 47.6473 25.6429L43.1902 28.0828L38.5157 23.5895L43.1902 19.0962L47.6473 21.5361C48.3991 21.9441 48.8639 22.7342 48.8552 23.5895Z" fill="#F0BB1F"/>
<path d="M43.19 28.0817L27.6204 36.5972C26.8997 36.9965 26.0212 36.9826 25.3134 36.561C25.2591 36.5276 25.2067 36.4913 25.1564 36.4523L38.5155 23.5884L43.19 28.0817Z" fill="#F15A2B"/>
</g>
<path d="M64.4749 16.7753H60.7399V18.265H62.7298C62.4638 18.978 61.8147 19.4143 60.8251 19.4143C59.3779 19.4143 58.484 18.4885 58.484 17.2222C58.484 15.9134 59.4205 14.9876 60.6761 14.9876C61.5167 14.9876 62.1871 15.3707 62.4957 15.8602L63.9429 15.0302C63.3151 14.0299 62.1126 13.3276 60.6867 13.3276C58.4947 13.3276 56.7815 15.0515 56.7815 17.2116C56.7815 19.3504 58.4628 21.0743 60.8038 21.0743C62.8894 21.0743 64.4749 19.6909 64.4749 17.4138V16.7753Z" fill="white"/>
<path d="M66.6053 19.2866V17.9671H69.2655V16.3497H66.6053V15.1153H69.5315V13.4766H64.9027V20.9253H69.5847V19.2866H66.6053Z" fill="white"/>
<path d="M75.0146 13.4766H69.4812V15.1153H71.3966V20.9253H73.0992V15.1153H75.0146V13.4766Z" fill="white"/>
<path d="M77.356 13.4766V20.9253H79.0585V13.4766H77.356Z" fill="white"/>
<path d="M84.8076 13.4766H79.2743V15.1153H81.1896V20.9253H82.8922V15.1153H84.8076V13.4766Z" fill="white"/>
<path d="M90.7031 21.0743C92.8419 21.0743 94.5764 19.393 94.5764 17.201C94.5764 15.0089 92.8419 13.3276 90.7031 13.3276C88.5643 13.3276 86.8298 15.0089 86.8298 17.201C86.8298 19.393 88.5643 21.0743 90.7031 21.0743ZM90.7031 19.4143C89.49 19.4143 88.5323 18.5311 88.5323 17.201C88.5323 15.8708 89.49 14.9876 90.7031 14.9876C91.9162 14.9876 92.8738 15.8708 92.8738 17.201C92.8738 18.5311 91.9162 19.4143 90.7031 19.4143Z" fill="white"/>
<path d="M99.1529 13.4766V17.5202L96.2799 13.4766H95.0029V20.9253H96.7055V16.8817L99.5786 20.9253H100.855V13.4766H99.1529Z" fill="white"/>
<path d="M64.4749 29.4274V29.7147C64.4749 30.644 64.145 31.4279 63.4853 32.0664C62.8256 32.6978 61.9566 33.0134 60.8783 33.0134C59.7432 33.0134 58.8068 32.6446 58.0691 31.9068C57.3313 31.1619 56.9624 30.2503 56.9624 29.172C56.9624 28.0938 57.3277 27.1857 58.0584 26.448C58.7891 25.7031 59.7149 25.3307 60.8357 25.3307C61.5167 25.3307 62.141 25.4938 62.7085 25.8201C63.2831 26.1465 63.7265 26.5827 64.0386 27.129L63.5385 27.4269C63.2902 26.9587 62.9213 26.5827 62.4319 26.299C61.9495 26.0152 61.4174 25.8733 60.8357 25.8733C59.8709 25.8733 59.0764 26.1926 58.4521 26.831C57.835 27.4624 57.5264 28.2427 57.5264 29.172C57.5264 30.1014 57.8385 30.8852 58.4628 31.5237C59.087 32.1551 59.8922 32.4707 60.8783 32.4707C61.7508 32.4707 62.4567 32.2331 62.9958 31.7578C63.535 31.2825 63.8365 30.6831 63.9003 29.9595H60.7399V29.4274H64.4749Z" fill="white"/>
<path d="M72.0282 31.8961C71.2833 32.641 70.3753 33.0134 69.3041 33.0134C68.2329 33.0134 67.3249 32.641 66.58 31.8961C65.8351 31.1442 65.4627 30.2361 65.4627 29.172C65.4627 28.1079 65.8351 27.2035 66.58 26.4586C67.3249 25.7066 68.2329 25.3307 69.3041 25.3307C70.3753 25.3307 71.2833 25.7066 72.0282 26.4586C72.773 27.2035 73.1455 28.1079 73.1455 29.172C73.1455 30.2361 72.773 31.1442 72.0282 31.8961ZM66.9737 31.5131C67.6122 32.1515 68.389 32.4707 69.3041 32.4707C70.2192 32.4707 70.9925 32.1515 71.6238 31.5131C72.2623 30.8675 72.5815 30.0872 72.5815 29.172C72.5815 28.2569 72.2623 27.4801 71.6238 26.8417C70.9925 26.1961 70.2192 25.8733 69.3041 25.8733C68.389 25.8733 67.6122 26.1961 66.9737 26.8417C66.3424 27.4801 66.0267 28.2569 66.0267 29.172C66.0267 30.0872 66.3424 30.8675 66.9737 31.5131Z" fill="white"/>
<path d="M80.7155 31.8961C79.9707 32.641 79.0626 33.0134 77.9914 33.0134C76.9203 33.0134 76.0122 32.641 75.2674 31.8961C74.5225 31.1442 74.1501 30.2361 74.1501 29.172C74.1501 28.1079 74.5225 27.2035 75.2674 26.4586C76.0122 25.7066 76.9203 25.3307 77.9914 25.3307C79.0626 25.3307 79.9707 25.7066 80.7155 26.4586C81.4604 27.2035 81.8328 28.1079 81.8328 29.172C81.8328 30.2361 81.4604 31.1442 80.7155 31.8961ZM75.6611 31.5131C76.2995 32.1515 77.0763 32.4707 77.9914 32.4707C78.9066 32.4707 79.6798 32.1515 80.3112 31.5131C80.9496 30.8675 81.2689 30.0872 81.2689 29.172C81.2689 28.2569 80.9496 27.4801 80.3112 26.8417C79.6798 26.1961 78.9066 25.8733 77.9914 25.8733C77.0763 25.8733 76.2995 26.1961 75.6611 26.8417C75.0297 27.4801 74.714 28.2569 74.714 29.172C74.714 30.0872 75.0297 30.8675 75.6611 31.5131Z" fill="white"/>
<path d="M90.3499 29.4274V29.7147C90.3499 30.644 90.0201 31.4279 89.3603 32.0664C88.7006 32.6978 87.8316 33.0134 86.7533 33.0134C85.6183 33.0134 84.6818 32.6446 83.9441 31.9068C83.2063 31.1619 82.8374 30.2503 82.8374 29.172C82.8374 28.0938 83.2027 27.1857 83.9334 26.448C84.6641 25.7031 85.5899 25.3307 86.7107 25.3307C87.3917 25.3307 88.016 25.4938 88.5835 25.8201C89.1581 26.1465 89.6015 26.5827 89.9137 27.129L89.4135 27.4269C89.1652 26.9587 88.7964 26.5827 88.3069 26.299C87.8245 26.0152 87.2924 25.8733 86.7107 25.8733C85.7459 25.8733 84.9514 26.1926 84.3271 26.831C83.71 27.4624 83.4014 28.2427 83.4014 29.172C83.4014 30.1014 83.7135 30.8852 84.3378 31.5237C84.9621 32.1551 85.7672 32.4707 86.7533 32.4707C87.6258 32.4707 88.3317 32.2331 88.8708 31.7578C89.41 31.2825 89.7115 30.6831 89.7753 29.9595H86.615V29.4274H90.3499Z" fill="white"/>
<path d="M92.3273 32.3643H95.8389V32.8964H91.7634V25.4477H92.3273V32.3643Z" fill="white"/>
<path d="M97.5751 32.3643H101.299V32.8964H97.0111V25.4477H101.246V25.9798H97.5751V28.8741H100.98V29.4061H97.5751V32.3643Z" fill="white"/>
<path d="M108.054 25.4477C108.721 25.4477 109.275 25.6676 109.714 26.1074C110.154 26.5473 110.374 27.0971 110.374 27.7568C110.374 28.4165 110.154 28.9663 109.714 29.4061C109.275 29.8389 108.721 30.0552 108.054 30.0552H106.086V32.8964H105.522V25.4477H108.054ZM108.054 29.5232C108.565 29.5232 108.984 29.3565 109.31 29.0231C109.643 28.6897 109.81 28.2676 109.81 27.7568C109.81 27.2389 109.643 26.8133 109.31 26.4799C108.984 26.1465 108.565 25.9798 108.054 25.9798H106.086V29.5232H108.054Z" fill="white"/>
<path d="M112.331 32.3643H115.843V32.8964H111.767V25.4477H112.331V32.3643Z" fill="white"/>
<path d="M122.235 32.8964L121.511 31.0023H117.776L117.052 32.8964H116.457L119.351 25.4477H119.947L122.831 32.8964H122.235ZM117.989 30.4702H121.309L119.649 26.1394L117.989 30.4702Z" fill="white"/>
<path d="M128.13 25.4477L125.417 29.8318V32.8964H124.853V29.8318L122.14 25.4477H122.778L125.14 29.2891L127.492 25.4477H128.13Z" fill="white"/>
<defs>
<clipPath id="clip0_0_301">
<rect width="26.6024" height="26.6024" fill="white" transform="translate(23.2094 10.2847)"/>
</clipPath>
</defs>
</svg>
