<svg width="82" height="82" viewBox="0 0 82 82" fill="none" xmlns="http://www.w3.org/2000/svg">
<rect width="82" height="82" fill="#1E1E1E"/>
<g id="Desktop - 1" clip-path="url(#clip0_0_1)">
<rect width="1440" height="6406" transform="translate(-1290 -5116)" fill="white"/>
<g id="footer">
<g id="Outbound">
<g id="Social">
<g id="Social_2">
<g id="Background" filter="url(#filter0_d_0_1)">
<path fill-rule="evenodd" clip-rule="evenodd" d="M41.4214 65.1971C56.4808 65.1971 68.6889 52.989 68.6889 37.9296C68.6889 22.8702 56.4808 10.6621 41.4214 10.6621C26.362 10.6621 14.1539 22.8702 14.1539 37.9296C14.1539 52.989 26.362 65.1971 41.4214 65.1971Z" fill="white"/>
</g>
<path id="Vector" d="M55.2447 31.3303C54.4514 31.6774 53.606 31.9075 52.7247 32.0193C53.6314 31.4792 54.3234 30.6306 54.6487 29.6078C53.8034 30.1105 52.87 30.4657 51.8754 30.6639C51.0727 29.8113 49.9287 29.2832 48.6807 29.2832C46.2594 29.2832 44.31 31.2438 44.31 33.6473C44.31 33.9932 44.3394 34.3257 44.4114 34.6423C40.7754 34.4654 37.558 32.7269 35.3967 30.0786C35.0194 30.7317 34.798 31.4792 34.798 32.284C34.798 33.795 35.578 35.1344 36.7407 35.9099C36.038 35.8966 35.3487 35.6931 34.7647 35.3725C34.7647 35.3858 34.7647 35.4031 34.7647 35.4204C34.7647 37.5406 36.2807 39.3017 38.2687 39.7074C37.9127 39.8045 37.5247 39.851 37.122 39.851C36.842 39.851 36.5594 39.8351 36.294 39.7765C36.8607 41.5044 38.4687 42.7746 40.3807 42.8159C38.8927 43.9771 37.0034 44.6767 34.958 44.6767C34.5994 44.6767 34.2554 44.6607 33.9114 44.6168C35.8487 45.8632 38.1447 46.5748 40.6207 46.5748C48.6687 46.5748 53.0687 39.9242 53.0687 34.1594C53.0687 33.9666 53.062 33.7803 53.0527 33.5955C53.9207 32.9809 54.65 32.2135 55.2447 31.3303Z" fill="#080809"/>
</g>
</g>
</g>
</g>
</g>
<defs>
<filter id="filter0_d_0_1" x="0.852715" y="0.021137" width="81.1375" height="81.1376" filterUnits="userSpaceOnUse" color-interpolation-filters="sRGB">
<feFlood flood-opacity="0" result="BackgroundImageFix"/>
<feColorMatrix in="SourceAlpha" type="matrix" values="0 0 0 0 0 0 0 0 0 0 0 0 0 0 0 0 0 0 127 0" result="hardAlpha"/>
<feOffset dy="2.66024"/>
<feGaussianBlur stdDeviation="6.65061"/>
<feColorMatrix type="matrix" values="0 0 0 0 0 0 0 0 0 0 0 0 0 0 0 0 0 0 0.1 0"/>
<feBlend mode="normal" in2="BackgroundImageFix" result="effect1_dropShadow_0_1"/>
<feBlend mode="normal" in="SourceGraphic" in2="effect1_dropShadow_0_1" result="shape"/>
</filter>
<clipPath id="clip0_0_1">
<rect width="1440" height="6406" fill="white" transform="translate(-1290 -5116)"/>
</clipPath>
</defs>
</svg>
