<svg width="88" height="87" viewBox="0 0 88 87" fill="none" xmlns="http://www.w3.org/2000/svg">
<rect width="88" height="87" fill="#1E1E1E"/>
<g id="Desktop - 1" clip-path="url(#clip0_0_1)">
<rect width="1440" height="6406" transform="translate(-1197 -5113)" fill="white"/>
<g id="footer">
<g id="Outbound">
<g id="Social">
<g id="Social_2">
<g id="Background" filter="url(#filter0_d_0_1)">
<path fill-rule="evenodd" clip-rule="evenodd" d="M43.9731 70.8555C60.5018 70.8555 73.9009 57.4564 73.9009 40.9277C73.9009 24.3991 60.5018 11 43.9731 11C27.4445 11 14.0454 24.3991 14.0454 40.9277C14.0454 57.4564 27.4445 70.8555 43.9731 70.8555Z" fill="url(#paint0_angular_0_1)"/>
</g>
<g id="instagram 1" clip-path="url(#clip1_0_1)">
<g id="Group">
<g id="Group_2">
<path id="Vector" d="M52.162 29.6196H37.115C35.3963 29.6196 33.9976 31.0183 33.9976 32.7371V47.7841C33.9976 49.5033 35.3963 50.9016 37.115 50.9016H52.162C53.8812 50.9016 55.2795 49.5033 55.2795 47.7841V32.7371C55.2795 31.0183 53.8812 29.6196 52.162 29.6196ZM54.0325 47.7841C54.0325 48.8154 53.1933 49.6546 52.162 49.6546H37.115C36.0838 49.6546 35.2445 48.8154 35.2445 47.7841V32.7371C35.2445 31.7058 36.0838 30.8666 37.115 30.8666H52.162C53.1933 30.8666 54.0325 31.7058 54.0325 32.7371V47.7841Z" fill="white"/>
</g>
<g id="Group_3">
<path id="Vector_2" d="M51.4966 32.1558C50.8091 32.1558 50.2496 32.7152 50.2496 33.4028C50.2496 34.0903 50.8091 34.6497 51.4966 34.6497C52.1841 34.6497 52.7436 34.0903 52.7436 33.4028C52.7436 32.7152 52.1841 32.1558 51.4966 32.1558Z" fill="white"/>
</g>
<g id="Group_4">
<path id="Vector_3" d="M44.6383 34.6509C41.5441 34.6509 39.0269 37.1681 39.0269 40.2623C39.0269 43.3565 41.5441 45.8738 44.6383 45.8738C47.7325 45.8738 50.2498 43.3565 50.2498 40.2623C50.2498 37.1681 47.7325 34.6509 44.6383 34.6509ZM44.6383 44.6268C42.2316 44.6268 40.2738 42.669 40.2738 40.2623C40.2738 37.8556 42.2316 35.8979 44.6383 35.8979C47.045 35.8979 49.0028 37.8556 49.0028 40.2623C49.0028 42.669 47.045 44.6268 44.6383 44.6268Z" fill="white"/>
</g>
</g>
</g>
</g>
</g>
</g>
</g>
</g>
<defs>
<filter id="filter0_d_0_1" x="0.744195" y="0.359028" width="86.4579" height="86.4579" filterUnits="userSpaceOnUse" color-interpolation-filters="sRGB">
<feFlood flood-opacity="0" result="BackgroundImageFix"/>
<feColorMatrix in="SourceAlpha" type="matrix" values="0 0 0 0 0 0 0 0 0 0 0 0 0 0 0 0 0 0 127 0" result="hardAlpha"/>
<feOffset dy="2.66024"/>
<feGaussianBlur stdDeviation="6.65061"/>
<feColorMatrix type="matrix" values="0 0 0 0 0 0 0 0 0 0 0 0 0 0 0 0 0 0 0.1 0"/>
<feBlend mode="normal" in2="BackgroundImageFix" result="effect1_dropShadow_0_1"/>
<feBlend mode="normal" in="SourceGraphic" in2="effect1_dropShadow_0_1" result="shape"/>
</filter>
<radialGradient id="paint0_angular_0_1" cx="0" cy="0" r="1" gradientUnits="userSpaceOnUse" gradientTransform="translate(43.9731 40.9277) rotate(90) scale(0.665061)">
<stop stop-color="#B8D2F1"/>
<stop offset="0.166667" stop-color="#F289AA"/>
<stop offset="0.294697" stop-color="#C68BF0"/>
<stop offset="0.427083" stop-color="#D164DA"/>
<stop offset="0.614583" stop-color="#C963E8"/>
<stop offset="0.71875" stop-color="#BFC2E8"/>
<stop offset="0.802083" stop-color="#FFC999"/>
<stop offset="0.875" stop-color="#D0D8C9"/>
<stop offset="0.928149" stop-color="#BAD0F1"/>
<stop offset="0.997133" stop-color="#CED8CB"/>
<stop offset="1" stop-color="white" stop-opacity="0"/>
</radialGradient>
<clipPath id="clip0_0_1">
<rect width="1440" height="6406" fill="white" transform="translate(-1197 -5113)"/>
</clipPath>
<clipPath id="clip1_0_1">
<rect width="21.2819" height="21.2819" fill="white" transform="translate(33.9974 29.6216)"/>
</clipPath>
</defs>
</svg>
