<svg width="42" height="39" viewBox="0 0 42 39" fill="none" xmlns="http://www.w3.org/2000/svg">
<path d="M40.2721 13.733L27.9811 11.9537L22.4867 0.85833C22.3367 0.554545 22.0898 0.308624 21.7848 0.159143C21.0199 -0.216971 20.0905 0.0964574 19.7081 0.85833L14.2137 11.9537L1.92265 13.733C1.58379 13.7812 1.27397 13.9404 1.03677 14.1815C0.750001 14.475 0.59198 14.87 0.597426 15.2796C0.602873 15.6892 0.77134 16.0799 1.06581 16.3658L9.95852 25.002L7.85757 37.1968C7.8083 37.4804 7.83982 37.7722 7.94854 38.0389C8.05726 38.3057 8.23885 38.5367 8.4727 38.7059C8.70654 38.8751 8.9833 38.9756 9.27159 38.9961C9.55988 39.0166 9.84816 38.9562 10.1037 38.8218L21.0974 33.0643L32.091 38.8218C32.3912 38.9809 32.7397 39.0339 33.0737 38.9761C33.916 38.8314 34.4824 38.0358 34.3372 37.1968L32.2363 25.002L41.129 16.3658C41.371 16.1295 41.5308 15.8209 41.5792 15.4834C41.7099 14.6395 41.1193 13.8584 40.2721 13.733Z" fill="white"/>
</svg>
