<svg width="57" height="58" viewBox="0 0 57 58" fill="none" xmlns="http://www.w3.org/2000/svg">
<rect width="57" height="58" fill="#1E1E1E"/>
<g id="Desktop - 1" clip-path="url(#clip0_0_1)">
<rect width="1440" height="6406" transform="translate(-39 -3313)" fill="white"/>
<g id="Book a trip">
<g id="Values">
<g id="Value">
<g id="Group 11">
<rect id="Rectangle 22" x="0.59729" width="56.3241" height="57.5224" rx="17.2916" fill="#4B40C5"/>
<g id="taxi 1">
<g id="Taxi Car Cab Vehicle Transport">
<path id="Vector" d="M20.0913 30.5835C19.7358 30.5835 19.3882 30.6889 19.0926 30.8864C18.797 31.084 18.5666 31.3647 18.4305 31.6932C18.2945 32.0216 18.2589 32.3831 18.3282 32.7318C18.3976 33.0805 18.5688 33.4008 18.8202 33.6522C19.0716 33.9036 19.3919 34.0748 19.7406 34.1441C20.0893 34.2135 20.4507 34.1779 20.7792 34.0418C21.1076 33.9058 21.3884 33.6754 21.5859 33.3798C21.7834 33.0841 21.8889 32.7366 21.8889 32.3811C21.8889 31.9043 21.6995 31.4471 21.3624 31.11C21.0252 30.7729 20.568 30.5835 20.0913 30.5835ZM20.0913 33.2799C19.9135 33.2799 19.7397 33.2272 19.5919 33.1284C19.4441 33.0296 19.3289 32.8893 19.2609 32.725C19.1929 32.5608 19.1751 32.3801 19.2098 32.2057C19.2444 32.0314 19.33 31.8712 19.4557 31.7455C19.5814 31.6198 19.7416 31.5342 19.9159 31.4996C20.0903 31.4649 20.271 31.4827 20.4352 31.5507C20.5995 31.6187 20.7398 31.7339 20.8386 31.8817C20.9374 32.0295 20.9901 32.2033 20.9901 32.3811C20.9901 32.6195 20.8954 32.8481 20.7268 33.0166C20.5583 33.1852 20.3297 33.2799 20.0913 33.2799Z" fill="white"/>
<path id="Vector_2" d="M38.067 30.5835C37.7115 30.5835 37.3639 30.6889 37.0683 30.8864C36.7727 31.084 36.5423 31.3647 36.4063 31.6932C36.2702 32.0216 36.2346 32.3831 36.304 32.7318C36.3733 33.0805 36.5445 33.4008 36.7959 33.6522C37.0473 33.9036 37.3676 34.0748 37.7163 34.1441C38.065 34.2135 38.4265 34.1779 38.7549 34.0418C39.0834 33.9058 39.3641 33.6754 39.5616 33.3798C39.7592 33.0841 39.8646 32.7366 39.8646 32.3811C39.8646 31.9043 39.6752 31.4471 39.3381 31.11C39.001 30.7729 38.5438 30.5835 38.067 30.5835ZM38.067 33.2799C37.8892 33.2799 37.7155 33.2272 37.5677 33.1284C37.4199 33.0296 37.3047 32.8893 37.2366 32.725C37.1686 32.5608 37.1508 32.3801 37.1855 32.2057C37.2202 32.0314 37.3058 31.8712 37.4315 31.7455C37.5572 31.6198 37.7173 31.5342 37.8917 31.4996C38.066 31.4649 38.2467 31.4827 38.411 31.5507C38.5752 31.6187 38.7156 31.7339 38.8143 31.8817C38.9131 32.0295 38.9658 32.2033 38.9658 32.3811C38.9658 32.6195 38.8711 32.8481 38.7025 33.0166C38.534 33.1852 38.3054 33.2799 38.067 33.2799Z" fill="white"/>
<path id="Vector_3" d="M25.0345 32.8293H33.1236V33.7281H25.0345V32.8293Z" fill="white"/>
<path id="Vector_4" d="M25.0345 31.0327H33.1236V31.9315H25.0345V31.0327Z" fill="white"/>
<path id="Vector_5" d="M27.731 24.2913H30.4274V25.19H27.731V24.2913Z" fill="white"/>
<path id="Vector_6" d="M42.5609 28.3361V27.4373C42.5599 27.08 42.4175 26.7377 42.1649 26.4851C41.9123 26.2325 41.57 26.0902 41.2128 26.0891H39.4332L38.5029 22.8265L38.2243 21.7165C38.1512 21.425 37.9828 21.1664 37.7458 20.9815C37.5089 20.7967 37.217 20.6963 36.9165 20.6964H33.1237V18.8988C33.1229 18.6606 33.028 18.4324 32.8596 18.264C32.6912 18.0956 32.463 18.0007 32.2249 18H25.9334C25.6952 18.0007 25.467 18.0956 25.2986 18.264C25.1302 18.4324 25.0353 18.6606 25.0346 18.8988V20.6964H21.2417C20.9412 20.6963 20.6493 20.7967 20.4124 20.9815C20.1755 21.1664 20.0071 21.425 19.9339 21.7165L19.6598 22.822L18.7251 26.0891H16.9455C16.5882 26.0902 16.2459 26.2325 15.9933 26.4851C15.7407 26.7377 15.5984 27.08 15.5973 27.4373V28.3361C15.598 28.5637 15.6565 28.7875 15.7674 28.9863C15.8782 29.1852 16.0377 29.3527 16.2309 29.473C15.8247 29.8905 15.5973 30.4499 15.5973 31.0324V36.4252C15.5979 36.6137 15.6382 36.8 15.7157 36.9719C15.7931 37.1438 15.9059 37.2974 16.0467 37.4228V39.1215C16.0478 39.4788 16.1901 39.821 16.4427 40.0736C16.6953 40.3263 17.0376 40.4686 17.3949 40.4697H20.99C21.3473 40.4686 21.6895 40.3263 21.9421 40.0736C22.1948 39.821 22.3371 39.4788 22.3382 39.1215V37.7733H35.82V39.1215C35.8211 39.4788 35.9635 39.821 36.2161 40.0736C36.4687 40.3263 36.811 40.4686 37.1682 40.4697H40.7634C41.1206 40.4686 41.4629 40.3263 41.7155 40.0736C41.9681 39.821 42.1105 39.4788 42.1115 39.1215V37.4228C42.2523 37.2974 42.3651 37.1438 42.4425 36.9719C42.52 36.8 42.5603 36.6137 42.5609 36.4252V31.0324C42.5609 30.4499 42.3335 29.8905 41.9273 29.473C42.1205 29.3527 42.28 29.1852 42.3909 28.9863C42.5017 28.7875 42.5602 28.5637 42.5609 28.3361ZM25.9334 18.8988H32.2249V20.6964H25.9334V18.8988ZM20.8058 21.9367C20.8299 21.8393 20.8859 21.7527 20.9649 21.6908C21.0439 21.6289 21.1413 21.5952 21.2417 21.5952H36.9165C37.0169 21.5952 37.1144 21.6289 37.1934 21.6908C37.2724 21.7527 37.3284 21.8393 37.3525 21.9367L37.4918 22.4939H20.6665L20.8058 21.9367ZM20.4283 23.3927H37.7299L39.2669 28.7855H26.3423C26.2367 28.1574 25.9119 27.5872 25.4257 27.1759C24.9395 26.7646 24.3232 26.5389 23.6864 26.5389C23.0495 26.5389 22.4333 26.7646 21.9471 27.1759C21.4608 27.5872 21.1361 28.1574 21.0305 28.7855H18.8913L20.4283 23.3927ZM25.421 28.7855H21.9517C22.0498 28.3998 22.2737 28.0579 22.5878 27.8137C22.9019 27.5695 23.2885 27.4369 23.6864 27.4369C24.0843 27.4369 24.4708 27.5695 24.785 27.8137C25.0991 28.0579 25.3229 28.3998 25.421 28.7855ZM16.4961 27.4373C16.4961 27.3181 16.5434 27.2038 16.6277 27.1195C16.712 27.0352 16.8263 26.9879 16.9455 26.9879H18.4689L17.9566 28.7855H16.9455C16.8263 28.7855 16.712 28.7381 16.6277 28.6538C16.5434 28.5696 16.4961 28.4552 16.4961 28.3361V27.4373ZM21.4394 39.1215C21.4394 39.2407 21.3921 39.355 21.3078 39.4393C21.2235 39.5236 21.1092 39.5709 20.99 39.5709H17.3949C17.2757 39.5709 17.1614 39.5236 17.0771 39.4393C16.9928 39.355 16.9455 39.2407 16.9455 39.1215V37.7733H21.4394V39.1215ZM41.2128 39.1215C41.2128 39.2407 41.1654 39.355 41.0811 39.4393C40.9969 39.5236 40.8825 39.5709 40.7634 39.5709H37.1682C37.049 39.5709 36.9347 39.5236 36.8504 39.4393C36.7662 39.355 36.7188 39.2407 36.7188 39.1215V37.7733H41.2128V39.1215ZM41.6621 36.4252C41.6621 36.5443 41.6148 36.6586 41.5305 36.7429C41.4462 36.8272 41.3319 36.8745 41.2128 36.8745H16.9455C16.8263 36.8745 16.712 36.8272 16.6277 36.7429C16.5434 36.6586 16.4961 36.5443 16.4961 36.4252V35.9758H41.6621V36.4252ZM41.6621 35.077H16.4961V31.0324C16.4971 30.6752 16.6395 30.3329 16.8921 30.0803C17.1447 29.8277 17.487 29.6853 17.8443 29.6842H40.314C40.6712 29.6853 41.0135 29.8277 41.2661 30.0803C41.5187 30.3329 41.6611 30.6752 41.6621 31.0324V35.077ZM41.6621 28.3361C41.6621 28.4552 41.6148 28.5696 41.5305 28.6538C41.4462 28.7381 41.3319 28.7855 41.2128 28.7855H40.2016L39.6893 26.9879H41.2128C41.3319 26.9879 41.4462 27.0352 41.5305 27.1195C41.6148 27.2038 41.6621 27.3181 41.6621 27.4373V28.3361Z" fill="white"/>
</g>
</g>
</g>
</g>
</g>
</g>
</g>
<defs>
<clipPath id="clip0_0_1">
<rect width="1440" height="6406" fill="white" transform="translate(-39 -3313)"/>
</clipPath>
</defs>
</svg>
