<svg width="57" height="58" viewBox="0 0 57 58" fill="none" xmlns="http://www.w3.org/2000/svg">
<rect x="0.59729" width="56.3241" height="57.5224" rx="17.2916" fill="#F15A2B"/>
<path d="M39.9263 38.2621C39.3869 38.2731 38.857 38.1187 38.4078 37.8198C38.0735 37.6013 37.6828 37.485 37.2834 37.485C36.884 37.485 36.4933 37.6013 36.159 37.8198C35.7053 38.1086 35.1786 38.2621 34.6407 38.2621C34.1028 38.2621 33.5761 38.1086 33.1224 37.8198C32.788 37.6011 32.3972 37.4846 31.9978 37.4846C31.5983 37.4846 31.2075 37.6011 30.8732 37.8198C30.4194 38.1086 29.8927 38.2621 29.3548 38.2621C28.817 38.2621 28.2902 38.1086 27.8365 37.8198C27.5024 37.6012 27.1119 37.4848 26.7127 37.4848C26.3135 37.4848 25.9229 37.6012 25.5889 37.8198C25.1775 38.0931 24.6974 38.2451 24.2037 38.2582L24.1765 37.4808C24.5412 37.4722 24.8953 37.3568 25.1951 37.1489C25.6488 36.8601 26.1753 36.7067 26.7131 36.7067C27.2508 36.7067 27.7774 36.8601 28.231 37.1489C28.5653 37.3675 28.956 37.4839 29.3554 37.4839C29.7548 37.4839 30.1455 37.3675 30.4798 37.1489C30.9336 36.8599 31.4605 36.7063 31.9985 36.7063C32.5366 36.7063 33.0634 36.8599 33.5172 37.1489C33.8515 37.3675 34.2423 37.4839 34.6417 37.4839C35.041 37.4839 35.4318 37.3675 35.7661 37.1489C36.2198 36.8601 36.7465 36.7068 37.2844 36.7068C37.8222 36.7068 38.3489 36.8601 38.8027 37.1489C39.1378 37.368 39.5295 37.4846 39.9298 37.4846C40.3302 37.4846 40.7219 37.368 41.057 37.1489C41.5056 36.8508 42.0346 36.6968 42.5731 36.7074V37.4847C42.1722 37.4738 41.7781 37.591 41.4483 37.8194C40.9981 38.1188 40.467 38.2733 39.9263 38.2621Z" fill="white"/>
<path d="M18.787 38.2616C18.2476 38.2728 17.7178 38.1184 17.2688 37.8193C16.9391 37.5907 16.5451 37.4734 16.144 37.4843V36.707C16.6835 36.6958 17.2135 36.8501 17.6626 37.1493C17.9921 37.3779 18.386 37.4953 18.787 37.4843C19.1881 37.4953 19.5822 37.3778 19.9118 37.1489C20.3599 36.8499 20.889 36.6956 21.4276 36.707C21.9531 36.6952 22.4699 36.8424 22.9103 37.1294L22.5181 37.8003C22.1965 37.5838 21.8151 37.4733 21.4276 37.4843C21.0281 37.4735 20.6357 37.5906 20.3074 37.8185C19.8579 38.1185 19.3272 38.2731 18.787 38.2616Z" fill="white"/>
<path d="M39.9276 35.5421C39.3878 35.5531 38.8575 35.3988 38.408 35.0998C38.0733 34.8811 37.6823 34.7647 37.2826 34.7647C36.8829 34.7647 36.4918 34.8811 36.1572 35.0998C35.7035 35.3886 35.1769 35.542 34.6391 35.542C34.1013 35.542 33.5746 35.3886 33.1209 35.0998C32.7868 34.8812 32.3962 34.7649 31.9969 34.7649C31.5977 34.7649 31.2071 34.8812 30.8729 35.0998C30.4192 35.3886 29.8926 35.5421 29.3548 35.5421C28.817 35.5421 28.2903 35.3886 27.8366 35.0998C27.5025 34.8812 27.1119 34.7649 26.7126 34.7649C26.3134 34.7649 25.9228 34.8812 25.5886 35.0998C25.1397 35.3989 24.6098 35.5533 24.0705 35.5421C23.5311 35.5533 23.0013 35.3989 22.5524 35.0998C22.2229 34.8712 21.8291 34.7538 21.4283 34.7647C21.0277 34.7539 20.634 34.8712 20.3047 35.0998C19.8565 35.3986 19.3275 35.5529 18.7889 35.5421C18.2494 35.5533 17.7195 35.3989 17.2704 35.0998C16.9403 34.8707 16.5456 34.7533 16.144 34.7647V33.9874C16.6834 33.9763 17.2132 34.1306 17.6622 34.4297C17.9919 34.6583 18.3859 34.7757 18.787 34.7647C19.1876 34.7756 19.5813 34.6582 19.9106 34.4297C20.3588 34.1309 20.8878 33.9766 21.4264 33.9874C21.9661 33.9759 22.4964 34.1303 22.9457 34.4297C23.2752 34.6584 23.6692 34.7757 24.0701 34.7647C24.471 34.7757 24.865 34.6584 25.1945 34.4297C25.6481 34.1408 26.1748 33.9873 26.7126 33.9873C27.2505 33.9873 27.7771 34.1408 28.2308 34.4297C28.565 34.6483 28.9556 34.7647 29.355 34.7647C29.7543 34.7647 30.145 34.6483 30.4792 34.4297C30.9328 34.1408 31.4595 33.9873 31.9973 33.9873C32.5351 33.9873 33.0618 34.1408 33.5154 34.4297C33.8496 34.6483 34.2403 34.7647 34.6396 34.7647C35.039 34.7647 35.4296 34.6483 35.7639 34.4297C36.218 34.1409 36.745 33.9875 37.2832 33.9875C37.8213 33.9875 38.3483 34.1409 38.8024 34.4297C39.1373 34.6482 39.5284 34.7645 39.9282 34.7645C40.328 34.7645 40.7192 34.6482 41.054 34.4297C41.5035 34.1308 42.0336 33.9765 42.5733 33.9874V34.7647C42.1715 34.7534 41.7765 34.8708 41.4461 35.0998C40.9969 35.3985 40.4671 35.5529 39.9276 35.5421Z" fill="white"/>
<path d="M39.9264 32.8215C39.387 32.8325 38.8571 32.6782 38.4079 32.3792C38.0782 32.1506 37.6841 32.0332 37.2831 32.0441C36.9888 32.034 36.6965 32.0968 36.4323 32.2268L36.0895 31.5272C36.4606 31.3454 36.87 31.2556 37.2831 31.2656C37.8232 31.2546 38.3537 31.4094 38.8032 31.7091C39.1383 31.9282 39.5299 32.0448 39.9303 32.0448C40.3307 32.0448 40.7223 31.9282 41.0574 31.7091C41.5059 31.4108 42.0347 31.2565 42.5732 31.2668V32.0441C42.1722 32.0332 41.7782 32.1504 41.4484 32.3788C40.9982 32.6782 40.467 32.8327 39.9264 32.8215Z" fill="white"/>
<path d="M34.6367 32.8209C34.0981 32.8322 33.5691 32.6779 33.1209 32.379C32.7866 32.1603 32.3958 32.0438 31.9963 32.0438C31.5969 32.0438 31.206 32.1603 30.8717 32.379C30.418 32.6678 29.8913 32.8213 29.3534 32.8213C28.8155 32.8213 28.2888 32.6678 27.8351 32.379C27.5008 32.1604 27.1101 32.044 26.7107 32.044C26.3113 32.044 25.9206 32.1604 25.5863 32.379C25.1374 32.6776 24.6079 32.8318 24.0689 32.8209C23.5296 32.832 22.9998 32.6777 22.5508 32.3786C22.2211 32.15 21.827 32.0326 21.426 32.0435C21.0265 32.0328 20.6341 32.1499 20.3059 32.3778C19.8568 32.6774 19.3267 32.8321 18.787 32.8209C18.2476 32.832 17.7178 32.6777 17.2688 32.3786C16.9391 32.15 16.5451 32.0326 16.144 32.0435V31.2662C16.6835 31.255 17.2135 31.4094 17.6626 31.7085C17.9921 31.9371 18.386 32.0545 18.787 32.0435C19.1881 32.0546 19.5822 31.937 19.9118 31.7081C20.3599 31.4091 20.889 31.2549 21.4276 31.2662C21.9669 31.2551 22.4967 31.4094 22.9457 31.7085C23.2752 31.9371 23.6692 32.0545 24.0701 32.0435C24.4711 32.0544 24.8652 31.9371 25.1949 31.7085C25.6486 31.4196 26.1753 31.2662 26.7132 31.2662C27.2511 31.2662 27.7778 31.4196 28.2315 31.7085C28.5658 31.927 28.9565 32.0434 29.3559 32.0434C29.7553 32.0434 30.1461 31.927 30.4803 31.7085C30.9341 31.4194 31.461 31.2659 31.9991 31.2659C32.5371 31.2659 33.064 31.4194 33.5178 31.7085C33.8602 31.9388 34.2662 32.0559 34.6787 32.0431C34.7087 32.0435 34.7387 32.042 34.7685 32.0385L34.8719 32.8088C34.7938 32.8179 34.7153 32.8219 34.6367 32.8209Z" fill="white"/>
<path d="M39.9276 30.1007C39.3878 30.1117 38.8575 29.9573 38.408 29.6584C38.0733 29.4397 37.6823 29.3233 37.2826 29.3233C36.8829 29.3233 36.4918 29.4397 36.1572 29.6584C35.7035 29.9472 35.1769 30.1005 34.6391 30.1005C34.1013 30.1005 33.5746 29.9472 33.1209 29.6584C32.7868 29.4398 32.3962 29.3235 31.9969 29.3235C31.5977 29.3235 31.2071 29.4398 30.8729 29.6584C30.4192 29.9472 29.8926 30.1007 29.3548 30.1007C28.817 30.1007 28.2903 29.9472 27.8366 29.6584C27.5025 29.4398 27.1119 29.3235 26.7126 29.3235C26.3134 29.3235 25.9228 29.4398 25.5886 29.6584C25.1397 29.9575 24.6098 30.1119 24.0705 30.1007C23.5311 30.1119 23.0013 29.9575 22.5524 29.6584C22.2229 29.4298 21.8291 29.3124 21.4283 29.3233C21.0277 29.3125 20.634 29.4298 20.3047 29.6584C19.8565 29.9572 19.3275 30.1115 18.7889 30.1007C18.2494 30.1119 17.7195 29.9575 17.2704 29.6584C16.9403 29.4293 16.5456 29.3119 16.144 29.3233V28.546C16.6834 28.5349 17.2132 28.6892 17.6622 28.9883C17.9919 29.2169 18.3859 29.3343 18.787 29.3233C19.1876 29.3342 19.5813 29.2168 19.9106 28.9883C20.3588 28.6895 20.8878 28.5352 21.4264 28.546C21.9661 28.5345 22.4964 28.6889 22.9457 28.9883C23.2752 29.2169 23.6692 29.3343 24.0701 29.3233C24.471 29.3343 24.865 29.2169 25.1945 28.9883C25.6481 28.6994 26.1748 28.5459 26.7126 28.5459C27.2505 28.5459 27.7771 28.6994 28.2308 28.9883C28.565 29.2069 28.9556 29.3233 29.355 29.3233C29.7543 29.3233 30.145 29.2069 30.4792 28.9883C30.9328 28.6994 31.4595 28.5459 31.9973 28.5459C32.5351 28.5459 33.0618 28.6994 33.5154 28.9883C33.8496 29.2069 34.2403 29.3233 34.6396 29.3233C35.039 29.3233 35.4296 29.2069 35.7639 28.9883C36.218 28.6995 36.745 28.5461 37.2832 28.5461C37.8213 28.5461 38.3483 28.6995 38.8024 28.9883C39.1373 29.2068 39.5284 29.3231 39.9282 29.3231C40.328 29.3231 40.7192 29.2068 41.054 28.9883C41.5035 28.6894 42.0336 28.5351 42.5733 28.546V29.3233C42.1715 29.312 41.7765 29.4294 41.4461 29.6584C40.9969 29.9571 40.4671 30.1114 39.9276 30.1007Z" fill="white"/>
<path d="M34.3891 29.7699L33.6557 29.5126C33.8446 28.9699 33.9218 28.3946 33.8826 27.8213C33.8434 27.2481 33.6886 26.6886 33.4276 26.1767L30.7578 20.9488C30.7315 20.8971 30.717 20.8403 30.7154 20.7823C30.7139 20.7244 30.7254 20.6668 30.7489 20.6139C30.7725 20.5609 30.8077 20.5139 30.8518 20.4763C30.8959 20.4387 30.9478 20.4114 31.0038 20.3965L36.3243 18.9778C36.4977 18.9325 36.6461 18.8205 36.7374 18.6663C36.8286 18.512 36.8553 18.328 36.8115 18.1542C36.7677 17.9804 36.6571 17.831 36.5037 17.7383C36.3503 17.6457 36.1665 17.6173 35.9924 17.6595L29.553 19.1986C29.4153 19.2311 29.287 19.2949 29.1779 19.385C29.0689 19.4751 28.982 19.5891 28.9241 19.7181C28.8662 19.8472 28.8388 19.9878 28.844 20.1292C28.8492 20.2706 28.8868 20.4088 28.954 20.5333L30.8663 24.0857C30.9148 24.176 30.9256 24.2818 30.8965 24.38C30.8674 24.4783 30.8007 24.5611 30.7108 24.6104L28.2428 25.9707L27.8677 25.2898L29.9984 24.1152L28.2704 20.9017C28.1467 20.6723 28.0775 20.4176 28.0681 20.1572C28.0587 19.8967 28.1093 19.6376 28.216 19.3999C28.3227 19.1622 28.4826 18.9521 28.6835 18.7861C28.8843 18.62 29.1206 18.5024 29.3742 18.4423L35.8105 16.9035C36.1852 16.8089 36.5821 16.8669 36.914 17.0649C37.2459 17.2629 37.4856 17.5847 37.5803 17.9593C37.6749 18.334 37.6169 18.731 37.4189 19.0629C37.2209 19.3948 36.8991 19.6345 36.5244 19.7291L31.6685 21.0234L34.1202 25.8226C34.4289 26.4284 34.6119 27.0904 34.6581 27.7688C34.7043 28.4471 34.6128 29.1278 34.3891 29.7699Z" fill="white"/>
<path d="M26.5092 26.0456L21.786 28.6482L22.161 29.3287L26.8841 26.7261L26.5092 26.0456Z" fill="white"/>
<path d="M37.9093 27.1854C37.3328 27.1854 36.7692 27.0145 36.2898 26.6942C35.8105 26.3739 35.4368 25.9186 35.2162 25.386C34.9956 24.8533 34.9379 24.2672 35.0503 23.7018C35.1628 23.1363 35.4404 22.6169 35.8481 22.2092C36.2558 21.8016 36.7752 21.524 37.3406 21.4115C37.9061 21.299 38.4922 21.3567 39.0248 21.5774C39.5575 21.798 40.0127 22.1716 40.333 22.651C40.6533 23.1303 40.8243 23.6939 40.8243 24.2705C40.8235 25.0433 40.5161 25.7843 39.9696 26.3308C39.4231 26.8772 38.6822 27.1846 37.9093 27.1854ZM37.9093 22.1328C37.4865 22.1328 37.0732 22.2582 36.7217 22.4931C36.3702 22.7279 36.0962 23.0618 35.9344 23.4524C35.7726 23.843 35.7302 24.2728 35.8127 24.6875C35.8952 25.1022 36.0988 25.4831 36.3978 25.782C36.6967 26.081 37.0776 26.2846 37.4923 26.367C37.9069 26.4495 38.3368 26.4072 38.7274 26.2454C39.118 26.0836 39.4518 25.8096 39.6867 25.4581C39.9216 25.1065 40.047 24.6932 40.047 24.2705C40.0462 23.7037 39.8208 23.1604 39.4201 22.7597C39.0193 22.359 38.476 22.1335 37.9093 22.1328Z" fill="white"/>
</svg>
