<svg width="20" height="20" viewBox="0 0 20 20" fill="none" xmlns="http://www.w3.org/2000/svg">
<rect width="20" height="20" fill="#1E1E1E"/>
<g id="Desktop - 1" clip-path="url(#clip0_0_1)">
<rect width="1440" height="6406" transform="translate(-825 -3301)" fill="white"/>
<g id="Book a trip">
<g id="Image">
<g id="Group 589" opacity="0.4">
<g id="Ellipse 8" opacity="0.8" filter="url(#filter0_f_0_1)">
<ellipse cx="302.711" cy="-284.097" rx="212.114" ry="219.903" fill="#4B40C5"/>
</g>
</g>
<g id="Image_2">
<g id="Group 5">
<g id="Rectangle 16" filter="url(#filter1_dddddd_0_1)">
<rect x="-29.619" y="-416.529" width="443.402" height="479.354" rx="34.5832" fill="white"/>
</g>
<g id="building 1">
<g id="Group">
<g id="Group_2">
<g id="Group_3">
<path id="Vector" d="M0.660194 19.0462H2.57761V8.50046C2.57761 8.32398 2.7207 8.18089 2.89718 8.18089H7.37115V0.8308C7.37115 0.654318 7.51423 0.51123 7.69071 0.51123H15.9995C16.176 0.51123 16.3191 0.654318 16.3191 0.8308V19.0462H19.1952C19.3717 19.0462 19.5148 19.1893 19.5148 19.3658C19.5148 19.5423 19.3717 19.6854 19.1952 19.6854H0.660194C0.483713 19.6854 0.340626 19.5423 0.340626 19.3658C0.340626 19.1893 0.483713 19.0462 0.660194 19.0462ZM12.8038 19.0462H14.0821V16.1701C14.0821 15.9936 13.939 15.8505 13.7625 15.8505H13.1234C12.9469 15.8505 12.8038 15.9936 12.8038 16.1701V19.0462ZM11.5255 8.50046V19.0462H12.1647V16.1701C12.1647 15.6406 12.5939 15.2114 13.1234 15.2114H13.7625C14.292 15.2114 14.7212 15.6406 14.7212 16.1701V19.0462H15.6799V1.15037H8.01028V8.18089H11.206C11.3825 8.18089 11.5255 8.32398 11.5255 8.50046ZM3.21675 19.0462H10.8864V8.82003H3.21675V19.0462Z" fill="#84829A"/>
<path id="Vector_2" d="M9.28828 4.98657H11.2057C11.3822 4.98657 11.5253 5.12966 11.5253 5.30614V7.22356C11.5253 7.40004 11.3822 7.54313 11.2057 7.54313H9.28828C9.1118 7.54313 8.96872 7.40004 8.96872 7.22356V5.30614C8.96872 5.12966 9.1118 4.98657 9.28828 4.98657ZM9.60785 6.90399H10.8861V5.62571H9.60785V6.90399Z" fill="#84829A"/>
<path id="Vector_3" d="M9.28828 1.78955H11.2057C11.3822 1.78955 11.5253 1.93264 11.5253 2.10912V4.02653C11.5253 4.20302 11.3822 4.3461 11.2057 4.3461H9.28828C9.1118 4.3461 8.96872 4.20302 8.96872 4.02653V2.10912C8.96872 1.93264 9.1118 1.78955 9.28828 1.78955ZM9.60785 3.70697H10.8861V2.42869H9.60785V3.70697Z" fill="#84829A"/>
<path id="Vector_4" d="M12.4841 4.98657H14.4015C14.578 4.98657 14.7211 5.12966 14.7211 5.30614V7.22356C14.7211 7.40004 14.578 7.54313 14.4015 7.54313H12.4841C12.3076 7.54313 12.1645 7.40004 12.1645 7.22356V5.30614C12.1645 5.12966 12.3076 4.98657 12.4841 4.98657ZM12.8037 6.90399H14.0819V5.62571H12.8037V6.90399Z" fill="#84829A"/>
<path id="Vector_5" d="M12.4841 1.78955H14.4015C14.578 1.78955 14.7211 1.93264 14.7211 2.10912V4.02653C14.7211 4.20302 14.578 4.3461 14.4015 4.3461H12.4841C12.3076 4.3461 12.1645 4.20302 12.1645 4.02653V2.10912C12.1645 1.93264 12.3076 1.78955 12.4841 1.78955ZM12.8037 3.70697H14.0819V2.42869H12.8037V3.70697Z" fill="#84829A"/>
<path id="Vector_6" d="M12.4841 8.1814H14.4015C14.578 8.1814 14.7211 8.32448 14.7211 8.50097V10.4184C14.7211 10.5949 14.578 10.7379 14.4015 10.7379H12.4841C12.3076 10.7379 12.1645 10.5949 12.1645 10.4184V8.50097C12.1645 8.32448 12.3076 8.1814 12.4841 8.1814ZM12.8037 10.0988H14.0819V8.82053H12.8037V10.0988Z" fill="#84829A"/>
<path id="Vector_7" d="M12.4841 11.3767H14.4015C14.578 11.3767 14.7211 11.5198 14.7211 11.6963V13.6137C14.7211 13.7902 14.578 13.9333 14.4015 13.9333H12.4841C12.3076 13.9333 12.1645 13.7902 12.1645 13.6137V11.6963C12.1645 11.5198 12.3076 11.3767 12.4841 11.3767ZM12.8037 13.2941H14.0819V12.0158H12.8037V13.2941Z" fill="#84829A"/>
<path id="Vector_8" d="M6.41236 15.2101H4.49495C4.31847 15.2101 4.17538 15.067 4.17538 14.8905V12.9731C4.17538 12.7967 4.31847 12.6536 4.49495 12.6536H6.41236C6.58885 12.6536 6.73193 12.7967 6.73193 12.9731V14.8905C6.73193 15.067 6.58885 15.2101 6.41236 15.2101ZM6.0928 13.2927H4.81452V14.571H6.0928V13.2927Z" fill="#84829A"/>
<path id="Vector_9" d="M6.41236 12.0153H4.49495C4.31847 12.0153 4.17538 11.8722 4.17538 11.6957V9.77831C4.17538 9.60183 4.31847 9.45874 4.49495 9.45874H6.41236C6.58885 9.45874 6.73193 9.60183 6.73193 9.77831V11.6957C6.73193 11.8722 6.58885 12.0153 6.41236 12.0153ZM6.0928 10.0979H4.81452V11.3762H6.0928V10.0979Z" fill="#84829A"/>
<path id="Vector_10" d="M6.41236 18.4064H4.49495C4.31847 18.4064 4.17538 18.2633 4.17538 18.0868V16.1694C4.17538 15.9929 4.31847 15.8499 4.49495 15.8499H6.41236C6.58885 15.8499 6.73193 15.9929 6.73193 16.1694V18.0868C6.73193 18.2633 6.58885 18.4064 6.41236 18.4064ZM6.0928 16.489H4.81452V17.7673H6.0928V16.489Z" fill="#84829A"/>
<path id="Vector_11" d="M9.60817 15.2101H7.69075C7.51427 15.2101 7.37118 15.067 7.37118 14.8905V12.9731C7.37118 12.7967 7.51427 12.6536 7.69075 12.6536H9.60817C9.78465 12.6536 9.92773 12.7967 9.92773 12.9731V14.8905C9.92773 15.067 9.78465 15.2101 9.60817 15.2101ZM9.2886 13.2927H8.01032V14.571H9.2886V13.2927Z" fill="#84829A"/>
<path id="Vector_12" d="M9.60817 12.0153H7.69075C7.51427 12.0153 7.37118 11.8722 7.37118 11.6957V9.77831C7.37118 9.60183 7.51427 9.45874 7.69075 9.45874H9.60817C9.78465 9.45874 9.92773 9.60183 9.92773 9.77831V11.6957C9.92773 11.8722 9.78465 12.0153 9.60817 12.0153ZM9.2886 10.0979H8.01032V11.3762H9.2886V10.0979Z" fill="#84829A"/>
<path id="Vector_13" d="M9.60817 18.4064H7.69075C7.51427 18.4064 7.37118 18.2633 7.37118 18.0868V16.1694C7.37118 15.9929 7.51427 15.8499 7.69075 15.8499H9.60817C9.78465 15.8499 9.92773 15.9929 9.92773 16.1694V18.0868C9.92773 18.2633 9.78465 18.4064 9.60817 18.4064ZM9.2886 16.489H8.01032V17.7673H9.2886V16.489Z" fill="#84829A"/>
</g>
</g>
</g>
</g>
</g>
</g>
</g>
</g>
</g>
<defs>
<filter id="filter0_f_0_1" x="-108.921" y="-703.518" width="823.264" height="838.843" filterUnits="userSpaceOnUse" color-interpolation-filters="sRGB">
<feFlood flood-opacity="0" result="BackgroundImageFix"/>
<feBlend mode="normal" in="SourceGraphic" in2="BackgroundImageFix" result="shape"/>
<feGaussianBlur stdDeviation="99.7591" result="effect1_foregroundBlur_0_1"/>
</filter>
<filter id="filter1_dddddd_0_1" x="-136.029" y="-418.253" width="656.222" height="720.5" filterUnits="userSpaceOnUse" color-interpolation-filters="sRGB">
<feFlood flood-opacity="0" result="BackgroundImageFix"/>
<feColorMatrix in="SourceAlpha" type="matrix" values="0 0 0 0 0 0 0 0 0 0 0 0 0 0 0 0 0 0 127 0" result="hardAlpha"/>
<feOffset dy="2.46319"/>
<feGaussianBlur stdDeviation="2.09371"/>
<feColorMatrix type="matrix" values="0 0 0 0 0 0 0 0 0 0 0 0 0 0 0 0 0 0 0.01 0"/>
<feBlend mode="normal" in2="BackgroundImageFix" result="effect1_dropShadow_0_1"/>
<feColorMatrix in="SourceAlpha" type="matrix" values="0 0 0 0 0 0 0 0 0 0 0 0 0 0 0 0 0 0 127 0" result="hardAlpha"/>
<feOffset dy="10.838"/>
<feGaussianBlur stdDeviation="4.33521"/>
<feColorMatrix type="matrix" values="0 0 0 0 0 0 0 0 0 0 0 0 0 0 0 0 0 0 0.01 0"/>
<feBlend mode="normal" in2="effect1_dropShadow_0_1" result="effect2_dropShadow_0_1"/>
<feColorMatrix in="SourceAlpha" type="matrix" values="0 0 0 0 0 0 0 0 0 0 0 0 0 0 0 0 0 0 127 0" result="hardAlpha"/>
<feOffset dy="26.6024"/>
<feGaussianBlur stdDeviation="8.64579"/>
<feColorMatrix type="matrix" values="0 0 0 0 0 0 0 0 0 0 0 0 0 0 0 0 0 0 0.01 0"/>
<feBlend mode="normal" in2="effect2_dropShadow_0_1" result="effect3_dropShadow_0_1"/>
<feColorMatrix in="SourceAlpha" type="matrix" values="0 0 0 0 0 0 0 0 0 0 0 0 0 0 0 0 0 0 127 0" result="hardAlpha"/>
<feOffset dy="51.2343"/>
<feGaussianBlur stdDeviation="16.9467"/>
<feColorMatrix type="matrix" values="0 0 0 0 0 0 0 0 0 0 0 0 0 0 0 0 0 0 0.0121481 0"/>
<feBlend mode="normal" in2="effect3_dropShadow_0_1" result="effect4_dropShadow_0_1"/>
<feColorMatrix in="SourceAlpha" type="matrix" values="0 0 0 0 0 0 0 0 0 0 0 0 0 0 0 0 0 0 127 0" result="hardAlpha"/>
<feOffset dy="86.2116"/>
<feGaussianBlur stdDeviation="31.1593"/>
<feColorMatrix type="matrix" values="0 0 0 0 0 0 0 0 0 0 0 0 0 0 0 0 0 0 0.0151852 0"/>
<feBlend mode="normal" in2="effect4_dropShadow_0_1" result="effect5_dropShadow_0_1"/>
<feColorMatrix in="SourceAlpha" type="matrix" values="0 0 0 0 0 0 0 0 0 0 0 0 0 0 0 0 0 0 127 0" result="hardAlpha"/>
<feOffset dy="133.012"/>
<feGaussianBlur stdDeviation="53.2049"/>
<feColorMatrix type="matrix" values="0 0 0 0 0 0 0 0 0 0 0 0 0 0 0 0 0 0 0.02 0"/>
<feBlend mode="normal" in2="effect5_dropShadow_0_1" result="effect6_dropShadow_0_1"/>
<feBlend mode="normal" in="SourceGraphic" in2="effect6_dropShadow_0_1" result="shape"/>
</filter>
<clipPath id="clip0_0_1">
<rect width="1440" height="6406" fill="white" transform="translate(-825 -3301)"/>
</clipPath>
</defs>
</svg>
