<svg width="57" height="58" viewBox="0 0 57 58" fill="none" xmlns="http://www.w3.org/2000/svg">
<rect width="57" height="58" fill="#1E1E1E"/>
<g id="Desktop - 1" clip-path="url(#clip0_0_1)">
<rect width="1440" height="6406" transform="translate(-41 -3039)" fill="white"/>
<g id="Book a trip">
<g id="Values">
<g id="Value">
<g id="Group 7">
<rect id="Rectangle 21" x="0.597321" y="0.0678711" width="56.3241" height="57.5224" rx="17.2916" fill="#F0BB1F"/>
<g id="selection 1">
<g id="Group">
<g id="Group_2">
<path id="Vector" d="M16.829 21.0103C16.4736 21.0103 16.1828 20.7195 16.1764 20.3641V16.2996C16.1764 15.9378 16.4672 15.647 16.829 15.647H20.8936C21.249 15.647 21.5397 15.9378 21.5397 16.2996V17.7148H37.1775V16.2996C37.1775 15.9442 37.4683 15.6534 37.8237 15.647H41.8882C42.2436 15.647 42.5344 15.9378 42.5408 16.2996V20.3641C42.5408 20.7195 42.25 21.0103 41.8882 21.0103H40.473V36.6481H41.8882C42.2436 36.6481 42.5344 36.9388 42.5408 37.2943V41.3588C42.5408 41.7142 42.25 42.005 41.8882 42.0114H37.8237C37.4683 42.0114 37.1775 41.7206 37.1775 41.3588V39.9436H21.5397V41.3588C21.5397 41.7142 21.249 42.005 20.8936 42.0114H16.829C16.4736 42.0114 16.1828 41.7206 16.1764 41.3588V37.2943C16.1764 36.9388 16.4672 36.6481 16.829 36.6481H18.2442V21.0103H16.829ZM41.2485 19.718V16.9393H38.4699V19.718H41.2485ZM38.4699 40.719H41.2485V37.9404H38.4699V40.719ZM21.5397 37.2943V38.6512H37.1775V37.2943C37.1775 36.9388 37.4683 36.6481 37.8237 36.6481H39.1807V21.0103H37.8237C37.4683 21.0103 37.1775 20.7195 37.1775 20.3641V19.0071H21.5397V20.3641C21.5397 20.7195 21.249 21.0103 20.8936 21.0103H19.5366V36.6481H20.8936C21.249 36.6481 21.5397 36.9388 21.5397 37.2943ZM17.4688 37.9404V40.719H20.2474V37.9404H17.4688ZM20.2474 19.718V16.9393H17.4688V19.718H20.2474Z" fill="white"/>
</g>
</g>
</g>
</g>
</g>
</g>
</g>
</g>
<defs>
<clipPath id="clip0_0_1">
<rect width="1440" height="6406" fill="white" transform="translate(-41 -3039)"/>
</clipPath>
</defs>
</svg>
