<svg width="109" height="99" viewBox="0 0 109 99" fill="none" xmlns="http://www.w3.org/2000/svg">
<rect width="109" height="99" fill="#1E1E1E"/>
<g id="Desktop - 1" clip-path="url(#clip0_0_1)">
<rect width="1440" height="6406" transform="translate(-152 -1293)" fill="white"/>
<g id="Group 590">
<g id="Group 48">
<path id="Rectangle 157" d="M108.063 74.6019C108.063 87.8248 97.3435 98.5441 84.1206 98.5441L56.071 98.5441C52.398 98.5441 49.4204 95.5665 49.4204 91.8935L49.4204 50.4323C49.4204 43.0862 55.3756 37.1311 62.7216 37.1311L101.412 37.1311C105.085 37.1311 108.063 40.1087 108.063 43.7817L108.063 74.6019Z" fill="#FBEBBC"/>
<g id="satellite-dish">
<g id="Group">
<path id="Vector" d="M27.7546 64.2734L25.5401 63.1406L12.3847 83.9266H27.0663L28.4811 82.9408V64.9849L27.7546 64.2734Z" fill="#407093"/>
<path id="Vector_2" d="M25.7402 63.2425L20.7614 60.6953H19.823L5.74445 82.9401L6.58259 83.9259H12.6498L25.7402 63.2425Z" fill="#365E7D"/>
<path id="Vector_3" d="M31.1241 82.9401H11.7106C10.8286 82.9401 10.1136 83.704 10.1136 84.6466V86.809C10.1136 87.7513 10.8285 88.5152 11.7103 88.5154H31.1241C32.0061 88.5154 32.7211 87.7515 32.7211 86.809V84.6466C32.7211 83.704 32.0061 82.9401 31.1241 82.9401Z" fill="#4A80AA"/>
<path id="Vector_4" d="M10.4441 86.809V84.6466C10.4441 83.7041 11.1591 82.9401 12.041 82.9401H1.75781C0.875889 82.9401 0.160889 83.704 0.160889 84.6466V86.809C0.160889 87.7515 0.875889 88.5154 1.75781 88.5154H12.0409C11.159 88.5154 10.4441 87.7515 10.4441 86.809Z" fill="#407093"/>
<path id="Vector_5" d="M25.072 50.8921C24.4744 52.2094 24.1367 53.6865 24.1367 55.2491C24.1367 59.519 26.6388 63.1615 30.1604 64.6024C31.6724 64.0962 33.0158 63.183 34.077 61.9808V59.799L25.072 50.8921Z" fill="#4A80AA"/>
<path id="Vector_6" d="M24.2942 55.2854C24.2942 53.7589 24.6245 52.3162 25.2093 51.0298L22.3309 48.1826H21.1629C19.3966 49.9631 18.2925 52.4856 18.2925 55.2852C18.2925 60.6783 22.3836 65.0502 27.4305 65.0502C28.4817 65.0502 29.4899 64.8575 30.4295 64.5081C26.8582 63.1804 24.2942 59.5539 24.2942 55.2854Z" fill="#407093"/>
<path id="Vector_7" d="M77.3484 1.94117C75.9024 0.395912 73.5579 0.395912 72.1121 1.94117L68.5784 5.71727V6.19586L72.9889 11.1091L73.8148 11.313L77.3483 7.53686C78.7945 5.99178 78.7945 3.48643 77.3484 1.94117Z" fill="#FFD086"/>
<path id="Vector_8" d="M78.3253 3.80891C78.171 3.12487 77.8481 2.47528 77.3484 1.94117C75.9024 0.395912 73.5579 0.395912 72.1121 1.94117L68.5784 5.71727V6.19586L70.9168 8.80076C72.3109 7.25053 73.695 5.7207 74.4068 4.96006C75.5934 3.69222 77.3265 3.68246 78.3253 3.80891Z" fill="#FFC365"/>
<g id="Group_2">
<path id="Vector_9" d="M65.2509 12.0004C65.2103 12.0004 65.1693 11.9982 65.1281 11.9939L24.2937 7.69874C23.6127 7.62712 23.1151 6.97923 23.1821 6.2515C23.2492 5.52376 23.8558 4.9924 24.5365 5.06351L65.3708 9.35847C66.0517 9.43009 66.5494 10.078 66.4824 10.8057C66.4193 11.4896 65.8804 12.0004 65.2509 12.0004Z" fill="#365E7D"/>
</g>
<g id="Group_3">
<path id="Vector_10" d="M36.1038 20.168C35.5543 20.168 35.0523 19.7742 34.9063 19.1796C34.7327 18.4723 35.1286 17.7485 35.7903 17.5629L64.9357 9.39364C65.5975 9.20841 66.2749 9.63114 66.4484 10.3385C66.6221 11.0457 66.2263 11.7694 65.5644 11.955L36.4191 20.1243C36.3136 20.1537 36.2077 20.168 36.1038 20.168Z" fill="#407093"/>
</g>
<g id="Group_4">
<path id="Vector_11" d="M73.1666 59.8598C72.5366 59.8598 71.9977 59.3485 71.935 58.6644L67.9407 15.0014C67.8741 14.2738 68.3722 13.6261 69.0532 13.5548C69.7342 13.487 70.3401 14.0161 70.4067 14.7438L74.401 58.4069C74.4675 59.1345 73.9695 59.7822 73.2885 59.8535C73.2476 59.8576 73.2069 59.8598 73.1666 59.8598Z" fill="#365E7D"/>
</g>
<g id="Group_5">
<path id="Vector_12" d="M61.4132 47.4655C61.3082 47.4655 61.2014 47.4509 61.0949 47.4209C60.4335 47.2335 60.0395 46.5086 60.2149 45.8018L67.9722 14.5363C68.1474 13.8293 68.8256 13.409 69.4872 13.5957C70.1486 13.7832 70.5426 14.508 70.3672 15.2148L62.6099 46.4804C62.4629 47.0736 61.9615 47.4655 61.4132 47.4655Z" fill="#407093"/>
</g>
<path id="Vector_13" d="M65.0275 9.51013L68.5701 5.72442L73.8057 11.3193L70.2631 15.1051L65.0275 9.51013Z" fill="#FFC365"/>
<path id="Vector_14" d="M67.718 12.3697C68.5695 11.417 69.8991 9.93105 71.1851 8.50231L68.5786 5.7168L65.0353 9.50301L67.718 12.3697Z" fill="#FFA90F"/>
<g id="Group_6">
<path id="Vector_15" d="M71.0606 17.2664C70.7436 17.2664 70.4264 17.1371 70.1846 16.8787L63.3708 9.59754C62.8869 9.0804 62.8869 8.24232 63.3708 7.725C63.8546 7.2082 64.639 7.2082 65.123 7.725L71.9367 15.0061C72.4207 15.5233 72.4207 16.3613 71.9367 16.8787C71.6947 17.1372 71.3777 17.2664 71.0606 17.2664Z" fill="#4A80AA"/>
</g>
<path id="Vector_16" d="M71.8602 62.2424L30.3756 17.5267C24.8756 30.7953 23.9206 45.039 28.038 57.3217C39.4094 68.2831 56.3961 69.9663 72.034 63.0759L71.8602 62.2424Z" fill="#B5DCFF"/>
<g id="Group_7">
<path id="Vector_17" d="M30.5966 17.765L21.0919 7.52002L20.1394 7.62043C13.4429 24.9755 15.3982 43.8865 26.7474 56.0145C27.4349 56.7491 28.1462 57.4462 28.8785 58.1075C24.0943 45.8393 24.8718 31.2479 30.5966 17.765Z" fill="#8BCAFF"/>
</g>
<path id="Vector_18" d="M75.6513 59.0638L33.5771 14.1025C33.1631 14.1707 32.7645 14.3719 32.4457 14.7126L30.6156 16.6684C30.2226 17.0884 30.0272 17.6369 30.0215 18.1874L71.9623 63.0059C72.5859 63.6723 73.5969 63.6723 74.2205 63.0059L75.6515 61.4769C76.2749 60.8107 76.2749 59.7302 75.6513 59.0638Z" fill="#DBEDFF"/>
<path id="Vector_19" d="M30.6788 16.7015L32.4707 14.7866C32.8007 14.434 33.2174 14.2321 33.6475 14.1775L23.8937 3.75443C23.2701 3.08804 22.2591 3.08804 21.6354 3.75443L20.2044 5.28358C19.5808 5.94997 19.5808 7.03035 20.2044 7.69674L30.0953 18.2663C30.0823 17.7015 30.2755 17.1325 30.6788 16.7015Z" fill="#B5DCFF"/>
</g>
</g>
</g>
</g>
</g>
<defs>
<clipPath id="clip0_0_1">
<rect width="1440" height="6406" fill="white" transform="translate(-152 -1293)"/>
</clipPath>
</defs>
</svg>
