<svg width="44" height="42" viewBox="0 0 44 42" fill="none" xmlns="http://www.w3.org/2000/svg">
<g clip-path="url(#clip0_0_276)">
<path d="M22.0973 42C19.1858 42 16.4003 41.4463 13.7408 40.3389C11.0813 39.2314 8.79277 37.7412 6.87512 35.8682C4.95748 33.9951 3.43176 31.7598 2.29797 29.1621C1.16418 26.5645 0.59729 23.8438 0.59729 21C0.59729 18.1562 1.16418 15.4355 2.29797 12.8379C3.43176 10.2402 4.95748 8.00488 6.87512 6.13184C8.79277 4.25879 11.0813 2.76855 13.7408 1.66113C16.4003 0.553711 19.1858 0 22.0973 0C25.0087 0 27.7942 0.553711 30.4537 1.66113C33.1132 2.76855 35.4018 4.25879 37.3195 6.13184C39.2371 8.00488 40.7628 10.2402 41.8966 12.8379C43.0304 15.4355 43.5973 18.1562 43.5973 21C43.5973 23.8438 43.0304 26.5645 41.8966 29.1621C40.7628 31.7598 39.2371 33.9951 37.3195 35.8682C35.4018 37.7412 33.1132 39.2314 30.4537 40.3389C27.7942 41.4463 25.0087 42 22.0973 42ZM12.901 12.0176L10.8854 10.2949C10.5774 10.2949 10.2135 10.3291 9.79358 10.3975C9.37366 10.4658 8.99573 10.5 8.65979 10.5C8.63179 10.4727 8.37984 9.9668 7.90393 8.98242C4.8245 12.4551 3.28479 16.4609 3.28479 21C3.28479 21.082 3.29179 21.1914 3.30579 21.3281C3.31978 21.4648 3.32678 21.5605 3.32678 21.6152C3.49475 21.7793 3.90767 22.0869 4.56555 22.5381C5.22343 22.9893 5.69234 23.3516 5.97229 23.625H8.65979C8.74377 23.5703 8.82076 23.5293 8.89075 23.502C8.96073 23.4746 9.03772 23.4473 9.1217 23.4199C8.84176 23.1191 8.42883 22.6748 7.88293 22.0869C7.33704 21.499 6.92411 21.0684 6.64417 20.7949C6.75614 20.166 6.91012 19.2158 7.10608 17.9443C7.30204 16.6729 7.44202 15.7227 7.526 15.0938C9.93355 14.1094 11.7252 13.3848 12.901 12.9199V12.0176ZM21.3414 5.33203C20.9495 5.16797 20.5856 5.01758 20.2496 4.88086C20.1656 4.66211 20.1097 4.49805 20.0817 4.38867C19.9137 4.9082 19.6477 5.6875 19.2838 6.72656C19.3958 6.75391 19.5568 6.78125 19.7667 6.80859C19.9767 6.83594 20.1377 6.86328 20.2496 6.89062H21.3414V5.33203ZM21.1735 24.6504C21.0335 24.7871 20.9355 24.8965 20.8795 24.9785C20.5436 25.5527 20.0677 26.4277 19.4518 27.6035C18.8359 28.7793 18.374 29.6543 18.066 30.2285C18.458 30.8027 19.0529 31.6777 19.8507 32.8535C20.6486 34.0293 21.2434 34.9043 21.6354 35.4785C25.2747 35.6973 28.0322 35.8613 29.9078 35.9707C29.9638 36.6543 30.1878 37.1191 30.5797 37.3652C33.1272 36.1074 35.2828 34.3643 37.0465 32.1357C38.8102 29.9072 39.972 27.4121 40.5319 24.6504C40 24.541 39.4191 24.3906 38.7892 24.1992C38.1593 24.0078 37.7044 23.8779 37.4244 23.8096C37.1445 23.7412 36.5916 23.6729 35.7657 23.6045C34.9399 23.5361 34.0791 23.584 33.1832 23.748C32.8473 23.7754 32.6303 23.5635 32.5323 23.1123C32.4344 22.6611 32.3854 22.1963 32.3854 21.7178C32.3854 21.2393 32.3294 20.9863 32.2174 20.959C31.6015 20.8496 30.3558 20.9521 28.4801 21.2666C26.6045 21.5811 25.3587 21.6836 24.7428 21.5742C24.3789 21.9023 23.1891 22.9277 21.1735 24.6504ZM23.651 4.10156C23.567 4.64844 23.42 5.46875 23.2101 6.5625C23.0001 7.65625 22.8392 8.49023 22.7272 9.06445C22.8671 9.03711 23.0981 9.00293 23.42 8.96191C23.742 8.9209 23.9729 8.90039 24.1129 8.90039C24.0289 8.8457 23.9309 8.79102 23.819 8.73633C24.2389 8.59961 24.5468 8.49023 24.7428 8.4082C24.2669 6.49414 23.903 5.05859 23.651 4.10156ZM28.5221 3.73242C28.4661 4.0332 28.4381 4.45703 28.4381 5.00391C28.4381 5.55078 28.2981 6.27539 28.0182 7.17773C28.0462 7.23242 28.1022 7.28711 28.1862 7.3418C28.7461 7.28711 29.6839 7.19141 30.9996 7.05469C30.9996 6.48047 31.2936 5.90625 31.8815 5.33203C30.8177 4.70312 29.6979 4.16992 28.5221 3.73242ZM33.7711 6.60352C33.7151 6.71289 33.6171 6.86328 33.4772 7.05469C34.0091 7.13672 34.359 7.20508 34.527 7.25977C34.191 6.95898 33.9391 6.74023 33.7711 6.60352ZM34.9049 7.58789C34.8209 7.75195 34.6879 7.99805 34.506 8.32617C34.324 8.6543 34.191 8.90039 34.1071 9.06445C33.2952 9.0918 32.2034 9.13281 30.8317 9.1875L30.6637 7.79297C30.6077 7.82031 30.5097 7.85449 30.3698 7.89551C30.2298 7.93652 30.1178 7.95703 30.0338 7.95703V9.9668C29.4459 10.0215 28.5431 10.1035 27.3253 10.2129C26.1075 10.3223 25.2047 10.4043 24.6168 10.459C24.4209 10.7324 24.2109 11.0332 23.9869 11.3613C24.7428 12.9473 25.3167 14.1367 25.7086 14.9297C25.1487 15.0664 24.0009 15.3672 22.2653 15.832V17.2266C22.2653 17.2812 22.2863 17.3633 22.3282 17.4727C22.3702 17.582 22.4052 17.6641 22.4332 17.7188C22.9091 17.9375 23.651 18.2656 24.6588 18.7031C25.6666 19.1406 26.4225 19.4824 26.9264 19.7285L27.8502 18.6211C27.8222 18.3477 27.7522 17.917 27.6403 17.3291C27.5283 16.7412 27.4443 16.2969 27.3883 15.9961C27.4723 15.9414 27.6053 15.8662 27.7872 15.7705C27.9692 15.6748 28.1022 15.5996 28.1862 15.5449C28.942 15.3262 29.5159 15.1758 29.9078 15.0938C30.2718 15.668 30.7827 16.4883 31.4406 17.5547C32.0984 18.6211 32.5114 19.291 32.6793 19.5645C32.9313 19.3457 33.2812 19.0107 33.7291 18.5596C34.177 18.1084 34.513 17.7734 34.7369 17.5547C33.2252 16.5156 32.2314 15.8457 31.7555 15.5449C31.7835 15.3262 31.8395 15.0117 31.9235 14.6016H33.4772C35.0449 15.9141 36.6546 17.2539 38.3063 18.6211C38.3343 18.6211 38.3623 18.6006 38.3903 18.5596C38.4183 18.5186 38.4462 18.498 38.4742 18.498C38.3623 18.2793 37.9983 17.6094 37.3824 16.4883C37.3824 16.4609 37.4244 16.4062 37.5084 16.3242L37.6764 16.1602H39.3981C39.4261 16.1328 39.664 16.0098 40.1119 15.791C39.1601 12.6191 37.4244 9.88477 34.9049 7.58789Z" fill="white"/>
</g>
<defs>
<clipPath id="clip0_0_276">
<rect width="43" height="42" fill="white" transform="translate(0.59729)"/>
</clipPath>
</defs>
</svg>
