<svg width="135" height="434" viewBox="0 0 135 434" fill="none" xmlns="http://www.w3.org/2000/svg">
<g id="Group">
<path id="Vector" d="M85.2791 235.588C83.6722 236.168 82.0898 237.043 80.6299 238.156C76.83 240.999 74.5089 244.61 75.446 246.221C76.383 247.831 80.2231 246.832 84.0231 243.989C85.5 242.904 86.8314 241.599 87.9352 240.153C88.4488 239.457 88.5787 238.664 88.2667 238.13L87.0494 236.037C86.7399 235.501 86.0451 235.325 85.2791 235.588Z" fill="#D5D6DB"/>
<path id="Vector_2" d="M75.9461 201.762C74.781 202.183 73.6334 202.817 72.5748 203.624C69.8201 205.685 68.1362 208.304 68.8151 209.471C69.494 210.638 72.2795 209.912 75.0339 207.851C76.1048 207.065 77.0702 206.118 77.8707 205.07C78.2427 204.565 78.3366 203.991 78.1105 203.603L77.2291 202.088C77.005 201.7 76.5016 201.571 75.9461 201.762Z" fill="#D5D6DB"/>
<path id="Vector_3" d="M60.9468 205.033C60.6919 205.041 60.4145 205.149 60.1688 205.333L53.6887 210.196C53.1467 210.602 52.9015 211.268 53.1415 211.684C53.1964 211.779 53.2745 211.856 53.3715 211.91L68.202 220.232L89.81 204.017L60.9468 205.033Z" fill="#029BC5"/>
<path id="Vector_4" d="M126.747 198.434L69.3114 238.5L35.7551 255.121L18.8278 260.492L17.1606 257.826L112.835 192.085C115.686 190.119 118.815 188.725 121.905 188.045C123.258 187.754 124.585 187.616 125.856 187.632C126.982 187.639 128.042 187.802 129.002 188.118C130.074 188.478 132.168 188.252 132.787 189.175C132.789 189.173 134.113 193.614 126.747 198.434Z" fill="#E1E6E9"/>
<path id="Vector_5" d="M71.2483 236.659L44.8817 277.061C44.5491 277.623 44.6947 278.181 45.2066 278.306C45.5208 278.383 45.9168 278.28 46.2588 278.032L52.64 273.422C53.8673 272.535 54.9702 271.472 55.8806 270.298L105.917 210.794L71.2483 236.659Z" fill="#029BC5"/>
<path id="Vector_6" d="M8.80921 234.859C8.4037 234.778 7.90764 234.924 7.4776 235.251L2.07804 239.363C1.34233 239.923 1.01073 240.841 1.33716 241.413C1.39936 241.522 1.48293 241.614 1.58526 241.684L15.542 251.331L31.4375 239.408L8.80921 234.859Z" fill="#029BC5"/>
<path id="Vector_7" d="M21.2131 254.67L12.9443 265.986C12.8233 266.149 12.8389 266.33 12.9792 266.39C13.0804 266.434 13.2238 266.404 13.3442 266.313L18.2651 262.779C18.3033 262.751 18.3384 262.719 18.3679 262.683L30.3345 248.124L21.2131 254.67Z" fill="#029BC5"/>
<path id="Vector_8" d="M124.38 188.932C123.049 188.912 121.658 189.066 120.24 189.389C118.759 191.469 117.761 193.711 117.344 195.891C117.298 196.324 117.634 196.583 118.093 196.469C118.236 196.434 118.381 196.365 118.512 196.268L127.678 189.475C126.671 189.123 125.561 188.94 124.38 188.932Z" fill="#029BC5"/>
<path id="Vector_9" d="M104.85 201.182L111.051 196.365L116.102 205.343L109.9 210.159L104.85 201.182Z" fill="#D5D6DB"/>
<g id="Group_2">
<path id="Vector_10" d="M101.259 204.385C100.516 204.963 100.178 205.902 100.505 206.481L101.035 207.42C101.387 207.979 102.267 207.948 102.999 207.35C103.696 206.781 104.015 205.897 103.727 205.326L103.197 204.388C102.87 203.809 102.003 203.807 101.259 204.385Z" fill="#3A556A"/>
<path id="Vector_11" d="M96.0234 207.859C95.2798 208.437 94.9418 209.376 95.2691 209.955L95.7994 210.894C96.1515 211.453 97.0307 211.422 97.7633 210.824C98.4605 210.255 98.7789 209.371 98.4916 208.8L97.9613 207.862C97.634 207.283 96.7667 207.282 96.0234 207.859Z" fill="#3A556A"/>
<path id="Vector_12" d="M90.7855 211.337C90.0427 211.916 89.7058 212.853 90.0328 213.432L90.5631 214.371C90.9152 214.93 91.7944 214.899 92.527 214.301C93.2241 213.732 93.5426 212.848 93.2552 212.278L92.725 211.339C92.3977 210.76 91.5295 210.759 90.7855 211.337Z" fill="#3A556A"/>
<path id="Vector_13" d="M85.5496 214.81C84.8067 215.388 84.4699 216.326 84.7969 216.905L85.3272 217.843C85.6793 218.403 86.5585 218.372 87.2911 217.774C87.9882 217.205 88.3067 216.32 88.0193 215.75L87.4891 214.811C87.1615 214.232 86.2933 214.232 85.5496 214.81Z" fill="#3A556A"/>
<path id="Vector_14" d="M80.3146 218.287C79.571 218.866 79.2338 219.805 79.5611 220.384L80.0919 221.324C80.4191 221.904 81.2873 221.904 82.031 221.326C82.7748 220.747 83.1124 219.809 82.7852 219.229L82.2544 218.29C81.9281 217.71 81.0603 217.708 80.3162 218.286C80.3155 218.286 80.3152 218.286 80.3146 218.287Z" fill="#3A556A"/>
<path id="Vector_15" d="M75.0788 221.76C74.3352 222.34 73.998 223.278 74.3253 223.858L74.8561 224.798C75.1834 225.377 76.0515 225.378 76.7953 224.799C77.539 224.221 77.8766 223.282 77.5494 222.703L77.0186 221.763C76.6923 221.183 75.8245 221.181 75.0804 221.759C75.0797 221.759 75.0791 221.76 75.0788 221.76Z" fill="#3A556A"/>
<path id="Vector_16" d="M69.8423 225.237C69.0987 225.816 68.7615 226.755 69.0889 227.334L69.6197 228.274C69.9478 228.853 70.8165 228.852 71.5594 228.273C72.3012 227.695 72.6381 226.758 72.3125 226.179L71.7817 225.24C71.4547 224.66 70.5866 224.658 69.8423 225.237Z" fill="#3A556A"/>
<path id="Vector_17" d="M64.606 228.711C63.8624 229.29 63.5252 230.229 63.8525 230.808L64.3833 231.748C64.7115 232.327 65.5801 232.326 66.3231 231.747C67.0648 231.169 67.4018 230.232 67.0762 229.653L66.5454 228.714C66.2184 228.134 65.3503 228.132 64.606 228.711Z" fill="#3A556A"/>
<path id="Vector_18" d="M59.3701 232.186C58.6265 232.765 58.2893 233.704 58.6166 234.283L59.1474 235.223C59.4756 235.802 60.3442 235.801 61.0872 235.222C61.8289 234.644 62.1659 233.707 61.8403 233.128L61.3095 232.189C60.9822 231.609 60.1141 231.608 59.3701 232.186Z" fill="#3A556A"/>
<path id="Vector_19" d="M54.1324 235.662C53.3887 236.241 53.0511 237.179 53.3783 237.758L53.379 237.76L53.9098 238.7C54.2379 239.278 55.1066 239.277 55.8495 238.698C56.5913 238.12 56.9282 237.184 56.6026 236.605L56.0718 235.665C55.7448 235.085 54.8767 235.084 54.1324 235.662Z" fill="#3A556A"/>
<path id="Vector_20" d="M48.8978 239.135C48.154 239.714 47.8164 240.652 48.1436 241.232L48.1443 241.233L48.6751 242.173C49.0033 242.751 49.8719 242.751 50.6149 242.172C51.3566 241.594 51.6936 240.657 51.368 240.078L50.8372 239.138C50.5099 238.559 49.6417 238.557 48.8978 239.135Z" fill="#3A556A"/>
</g>
</g>
</svg>
