<svg width="85" height="86" viewBox="0 0 85 86" fill="none" xmlns="http://www.w3.org/2000/svg">
<g id="Group 49">
<path id="Rectangle 160" d="M-1.95869e-06 62.0578C-8.76936e-07 75.2807 10.7193 86 23.9422 86L51.3494 86C55.0224 86 58 83.0224 58 79.3494L58 39.3012C58 31.9552 52.0448 26 44.6988 26L6.6506 26C2.97757 26 -4.66496e-06 28.9776 -4.36447e-06 32.6506L-1.95869e-06 62.0578Z" fill="#FBEBBC"/>
<g id="power-supply 1">
<g id="Group">
<path id="Vector" d="M84.6423 34.9029V27.7634C84.6423 26.3638 83.5806 25.2293 82.2709 25.2293H79.7156C78.694 25.2293 77.7874 24.5298 77.4662 23.4933C77.1085 22.3387 76.6738 21.2216 76.1688 20.1488C75.7089 19.1717 75.8849 17.9905 76.6085 17.2171L78.4164 15.2852C79.3426 14.2955 79.3426 12.691 78.4164 11.7013L73.6922 6.65297C72.7661 5.66329 71.2647 5.66329 70.3385 6.65297L68.5306 8.5849C67.8069 9.35833 66.7015 9.54633 65.7872 9.05484C64.7833 8.51518 63.7379 8.05066 62.6574 7.66836C61.6875 7.32515 61.0329 6.3564 61.0329 5.2646V2.53414C61.0329 1.13455 59.9712 0 58.6615 0H51.9805C50.6708 0 49.6091 1.13455 49.6091 2.53414V5.26473C49.6091 6.35653 48.9545 7.32527 47.9846 7.66849C46.9041 8.05079 45.8587 8.5153 44.8548 9.05497C43.9405 9.54646 42.8351 9.35833 42.1114 8.58503L40.3035 6.65309C39.3774 5.66342 37.8759 5.66342 36.9498 6.65309L32.2258 11.7014C31.2997 12.6911 31.2997 14.2956 32.2258 15.2853L34.0337 17.2172C34.7573 17.9906 34.9334 19.1719 34.4735 20.1489C33.9684 21.2217 33.5338 22.3388 33.176 23.4934C32.949 24.2259 32.4297 24.79 31.784 25.0579C31.5161 25.1692 31.3443 25.3554 31.0446 25.3554H28.4893C27.1796 25.3554 26.1179 26.4899 26.1179 27.8895V34.7768C26.1179 36.1764 27.1796 37.3109 28.4893 37.3109H31.0446C32.0663 37.3109 32.9728 38.1365 33.294 39.173C33.6518 40.3276 34.0864 41.4446 34.5915 42.5175C35.0514 43.4946 34.8753 44.6758 34.1517 45.4492L32.4618 47.3811C31.5357 48.3708 31.5357 49.9753 32.4618 50.965L36.95 55.7612C37.8761 56.7508 39.3776 56.7508 40.3037 55.7612L42.1116 53.8292C42.8352 53.0558 43.9407 52.8678 44.855 53.3593C45.8589 53.8989 47.1403 54.4895 48.2208 54.8718C49.1907 55.2151 49.8453 56.1838 49.8453 57.2756V60.0062C49.8453 61.4058 50.907 62.5403 52.2167 62.5403H58.5437C59.8535 62.5403 60.9152 61.4058 60.9152 60.0062V57.2756C60.9152 56.9553 61.0894 56.7718 61.1935 56.4854C61.4442 55.7954 61.9723 55.2405 62.6576 54.9979C63.738 54.6156 64.7834 54.1511 65.7873 53.6115C66.7016 53.12 67.807 53.3081 68.5308 54.0814L70.3386 56.0133C71.2648 57.003 72.7662 57.003 73.6924 56.0133L78.4165 50.965C79.3427 49.9753 79.3427 48.3708 78.4165 47.3811L76.6087 45.4492C75.885 44.6758 75.709 43.4946 76.1689 42.5175C76.6739 41.4447 77.1086 40.3276 77.4664 39.173C77.7875 38.1365 78.6941 37.437 79.7158 37.437H82.271C83.5806 37.437 84.6423 36.3024 84.6423 34.9029Z" fill="#B6C4CF"/>
<path id="Vector_2" d="M61.1937 56.4862C61.0899 56.7724 61.0332 57.0826 61.0332 57.4029V60.1327C61.0332 61.5323 59.9713 62.6671 58.6616 62.6671H51.9808C50.6711 62.6671 49.6092 61.5323 49.6092 60.1327V57.4029C49.6092 56.3109 48.9543 55.3413 47.9844 54.9983C46.9048 54.6163 45.8594 54.1523 44.8552 53.6126C43.9408 53.1209 42.8352 53.3088 42.1119 54.0817L40.3043 56.0134C39.378 57.0032 37.876 57.0032 36.9497 56.0134L32.2253 50.966C31.3002 49.9762 31.3002 48.3711 32.2253 47.3813L34.0341 45.4496C34.7574 44.6767 34.9332 43.4952 34.4731 42.518C33.968 41.445 33.5338 40.3279 33.1763 39.1742C32.8554 38.1377 31.948 37.4379 30.9262 37.4379H28.3717C27.0619 37.4379 26 36.3031 26 34.9035V27.7643C26 26.3648 27.0619 25.23 28.3717 25.23H30.9262C31.2259 25.23 31.5162 25.1694 31.784 25.0585C31.7816 25.2161 31.7805 25.375 31.7805 25.5338C31.7805 42.6303 44.7502 56.49 60.7489 56.49C60.8975 56.49 61.0462 56.4887 61.1937 56.4862Z" fill="#9FACBA"/>
<path id="Vector_3" d="M55.321 52.1375C66.0733 52.1375 74.7898 42.8229 74.7898 31.3328C74.7898 19.8427 66.0733 10.5281 55.321 10.5281C44.5687 10.5281 35.8522 19.8427 35.8522 31.3328C35.8522 42.8229 44.5687 52.1375 55.321 52.1375Z" fill="#9FACBA"/>
<path id="Vector_4" d="M55.3211 47.7259C63.7926 47.7259 70.6602 40.3872 70.6602 31.3343C70.6602 22.2815 63.7926 14.9427 55.3211 14.9427C46.8496 14.9427 39.9821 22.2815 39.9821 31.3343C39.9821 40.3872 46.8496 47.7259 55.3211 47.7259Z" fill="#F8F7F7"/>
</g>
</g>
</g>
</svg>
