<svg width="44" height="38" viewBox="0 0 44 38" fill="none" xmlns="http://www.w3.org/2000/svg">
<path d="M0.59729 38H8.41547V15.2H0.59729V38ZM43.5973 17.1C43.5973 15.01 41.8382 13.3 39.6882 13.3H27.355L29.2118 4.617L29.2705 4.009C29.2705 3.23 28.9382 2.508 28.4105 1.995L26.3387 0L13.4777 12.521C12.7546 13.205 12.3246 14.155 12.3246 15.2V34.2C12.3246 36.29 14.0837 38 16.2337 38H33.8246C35.4468 38 36.8346 37.05 37.4209 35.682L43.3237 22.287C43.4996 21.85 43.5973 21.394 43.5973 20.9V17.1Z" fill="white"/>
</svg>
